<svg width="30" height="31" viewBox="0 0 30 31" fill="none" xmlns="http://www.w3.org/2000/svg">
<rect width="30" height="30" transform="translate(0 0.719971)" fill="#5A5A5A"/>
<path d="M20.5 8.71997H9.5C9.10218 8.71997 8.72064 8.87801 8.43934 9.15931C8.15804 9.44062 8 9.82215 8 10.22V21.22C8 21.6178 8.15804 21.9993 8.43934 22.2806C8.72064 22.5619 9.10218 22.72 9.5 22.72H13.7891V17.9603H11.8203V15.72H13.7891V14.0125C13.7891 12.0703 14.9453 10.9975 16.7163 10.9975C17.5644 10.9975 18.4513 11.1487 18.4513 11.1487V13.055H17.4741C16.5113 13.055 16.2109 13.6525 16.2109 14.2653V15.72H18.3603L18.0166 17.9603H16.2109V22.72H20.5C20.8978 22.72 21.2794 22.5619 21.5607 22.2806C21.842 21.9993 22 21.6178 22 21.22V10.22C22 9.82215 21.842 9.44062 21.5607 9.15931C21.2794 8.87801 20.8978 8.71997 20.5 8.71997Z" fill="white"/>
</svg>
