<svg width="30" height="31" viewBox="0 0 30 31" fill="none" xmlns="http://www.w3.org/2000/svg">
<rect width="30" height="30" transform="translate(0 0.719971)" fill="#5A5A5A"/>
<path d="M15 14.7377H21.4731C21.5354 15.0857 21.58 15.4251 21.58 15.8805C21.58 19.7914 18.9548 22.5771 14.9994 22.5771C11.2046 22.5771 8.14227 19.5148 8.14227 15.7199C8.14227 11.9251 11.2046 8.86279 14.9994 8.86279C16.8474 8.86279 18.4011 9.54165 19.5977 10.6577L17.7314 12.4525C17.2223 11.9616 16.3297 11.3902 14.9994 11.3902C12.66 11.3902 10.7491 13.3279 10.7491 15.7205C10.7491 18.1131 12.66 20.0508 14.9994 20.0508C17.7137 20.0508 18.7314 18.1045 18.8926 17.0954H14.9994V14.7382L15 14.7377Z" fill="white"/>
</svg>
