<svg width="21" height="32" viewBox="0 0 21 32" fill="none" xmlns="http://www.w3.org/2000/svg">
<path d="M2.07747 18.2314C2.49469 17.5751 3.15733 17.5108 3.60727 18.1027C7.42769 23.044 12.9742 23.044 16.8028 18.1156C17.261 17.5237 17.9318 17.5751 18.349 18.2314C18.8317 18.9906 18.7989 20.2517 18.2672 20.9337C13.596 26.943 6.83867 26.943 2.15928 20.9337C1.62753 20.2645 1.58662 19.0035 2.07747 18.2314ZM8.42574 8.24588L9.62831 6.35429C9.94736 5.85244 10.4627 5.85244 10.7818 6.35429L11.9844 8.24588C12.3689 8.85067 12.2871 9.89298 11.7962 10.2919C11.3014 10.6915 10.7531 10.9 10.1969 10.9C9.64062 10.9 9.09237 10.6915 8.59753 10.2919C8.13123 9.89298 8.04124 8.85067 8.42574 8.24588ZM5.37432 13.0456C5.77517 12.4151 6.40509 12.3508 6.87139 12.8783C7.8474 13.9645 9.01356 14.5478 10.2091 14.5478C11.4047 14.5478 12.5709 13.9645 13.5469 12.8783C14.0132 12.3636 14.6431 12.4151 15.044 13.0456L15.0522 13.0585C15.543 13.8306 15.5103 15.1431 14.9458 15.7736C12.1316 18.9777 8.29485 18.9777 5.47248 15.7736C4.90801 15.1302 4.87529 13.8306 5.37432 13.0456Z" fill="white"/>
</svg>
