<svg width="40" height="40" viewBox="0 0 40 40" fill="none" xmlns="http://www.w3.org/2000/svg">
<rect x="0.359985" width="39.59" height="39.59" rx="19.795" fill="#F2860A"/>
<path d="M20.255 16.007C22.4698 16.007 24.298 17.8351 24.298 20.05C24.298 22.3 22.4698 24.093 20.255 24.093C18.005 24.093 16.212 22.3 16.212 20.05C16.212 17.8351 18.005 16.007 20.255 16.007ZM20.255 22.6867C21.6964 22.6867 22.8566 21.5266 22.8566 20.05C22.8566 18.6086 21.6964 17.4484 20.255 17.4484C18.7784 17.4484 17.6183 18.6086 17.6183 20.05C17.6183 21.5266 18.8136 22.6867 20.255 22.6867ZM25.3878 15.8664C25.3878 16.3937 24.9659 16.8156 24.4386 16.8156C23.9113 16.8156 23.4894 16.3937 23.4894 15.8664C23.4894 15.3391 23.9113 14.9172 24.4386 14.9172C24.9659 14.9172 25.3878 15.3391 25.3878 15.8664ZM28.0597 16.8156C28.13 18.1164 28.13 22.0187 28.0597 23.3195C27.9894 24.5851 27.7081 25.675 26.7941 26.6242C25.88 27.5383 24.755 27.8195 23.4894 27.8898C22.1886 27.9601 18.2863 27.9601 16.9855 27.8898C15.7198 27.8195 14.63 27.5383 13.6808 26.6242C12.7667 25.675 12.4855 24.5851 12.4152 23.3195C12.3448 22.0187 12.3448 18.1164 12.4152 16.8156C12.4855 15.55 12.7667 14.425 13.6808 13.5109C14.63 12.5969 15.7198 12.3156 16.9855 12.2453C18.2863 12.175 22.1886 12.175 23.4894 12.2453C24.755 12.3156 25.88 12.5969 26.7941 13.5109C27.7081 14.425 27.9894 15.55 28.0597 16.8156ZM26.3722 24.6906C26.7941 23.6711 26.6886 21.2101 26.6886 20.05C26.6886 18.925 26.7941 16.4641 26.3722 15.4094C26.0909 14.7414 25.5636 14.1789 24.8956 13.9328C23.8409 13.5109 21.38 13.6164 20.255 13.6164C19.0948 13.6164 16.6339 13.5109 15.6144 13.9328C14.9113 14.2141 14.3839 14.7414 14.1027 15.4094C13.6808 16.4641 13.7863 18.925 13.7863 20.05C13.7863 21.2101 13.6808 23.6711 14.1027 24.6906C14.3839 25.3937 14.9113 25.9211 15.6144 26.2023C16.6339 26.6242 19.0948 26.5187 20.255 26.5187C21.38 26.5187 23.8409 26.6242 24.8956 26.2023C25.5636 25.9211 26.1261 25.3937 26.3722 24.6906Z" fill="white"/>
</svg>
