<svg width="41" height="40" viewBox="0 0 41 40" fill="none" xmlns="http://www.w3.org/2000/svg">
<rect x="0.589996" width="39.59" height="39.59" rx="19.795" fill="#F2860A"/>
<path d="M27.6265 16.3938C27.6265 16.5696 27.6265 16.7102 27.6265 16.886C27.6265 21.7727 23.9351 27.3625 17.15 27.3625C15.0406 27.3625 13.107 26.7649 11.4898 25.7102C11.7711 25.7454 12.0523 25.7805 12.3687 25.7805C14.0914 25.7805 15.6734 25.1829 16.939 24.1985C15.3218 24.1633 13.9507 23.1086 13.4937 21.6321C13.7398 21.6672 13.9507 21.7024 14.1968 21.7024C14.5132 21.7024 14.8648 21.6321 15.1461 21.5618C13.4586 21.2102 12.1929 19.7336 12.1929 17.9407V17.9055C12.6851 18.1868 13.2828 18.3274 13.8804 18.3625C12.8609 17.6946 12.2281 16.5696 12.2281 15.304C12.2281 14.6008 12.4039 13.968 12.7203 13.4407C14.5484 15.6555 17.2906 17.1321 20.3492 17.3079C20.2789 17.0266 20.2437 16.7454 20.2437 16.4641C20.2437 14.425 21.8961 12.7727 23.9351 12.7727C24.9898 12.7727 25.939 13.1946 26.6422 13.9329C27.4507 13.7571 28.2593 13.4407 28.9625 13.0188C28.6812 13.8977 28.1187 14.6008 27.3453 15.0579C28.0836 14.9875 28.8218 14.7766 29.4547 14.4954C28.9625 15.2336 28.3297 15.8665 27.6265 16.3938Z" fill="white"/>
</svg>
