<svg width="41" height="40" viewBox="0 0 41 40" fill="none" xmlns="http://www.w3.org/2000/svg">
<rect x="0.769989" width="39.59" height="39.59" rx="19.795" fill="#F2860A"/>
<path d="M16.3056 26.8H13.0361V16.2883H16.3056V26.8ZM14.6533 14.882C13.6337 14.882 12.79 14.0031 12.79 12.9484C12.79 11.9289 13.6337 11.0851 14.6533 11.0851C15.7079 11.0851 16.5517 11.9289 16.5517 12.9484C16.5517 14.0031 15.7079 14.882 14.6533 14.882ZM28.5048 26.8H25.2704V21.7023C25.2704 20.4719 25.2353 18.925 23.5478 18.925C21.8603 18.925 21.6142 20.2258 21.6142 21.5969V26.8H18.3447V16.2883H21.4736V17.7297H21.5087C21.9658 16.9211 23.0204 16.0422 24.6025 16.0422C27.9072 16.0422 28.54 18.2219 28.54 21.0344V26.8H28.5048Z" fill="white"/>
</svg>
