<svg width="43" height="39" viewBox="0 0 43 39" fill="none" xmlns="http://www.w3.org/2000/svg">
<rect x="0.179993" width="42.59" height="38.2567" rx="19.1283" fill="#F2860A"/>
<path d="M31.5312 13.4078C31.2897 12.3813 30.5781 11.5729 29.6746 11.2986C28.0369 10.8 21.47 10.8 21.47 10.8C21.47 10.8 14.9032 10.8 13.2655 11.2986C12.362 11.573 11.6504 12.3813 11.4088 13.4078C10.97 15.2684 10.97 19.1502 10.97 19.1502C10.97 19.1502 10.97 23.0321 11.4088 24.8926C11.6504 25.9191 12.362 26.6938 13.2655 26.9682C14.9032 27.4667 21.47 27.4667 21.47 27.4667C21.47 27.4667 28.0369 27.4667 29.6746 26.9682C30.5781 26.6938 31.2897 25.9191 31.5312 24.8926C31.97 23.0321 31.97 19.1502 31.97 19.1502C31.97 19.1502 31.97 15.2684 31.5312 13.4078ZM19.3223 22.6747V15.6258L24.8109 19.1503L19.3223 22.6747Z" fill="white"/>
</svg>
