<svg width="30" height="31" viewBox="0 0 30 31" fill="none" xmlns="http://www.w3.org/2000/svg">
<rect width="30" height="30" transform="translate(0 0.719971)" fill="#5A5A5A"/>
<path d="M21 8.71997H8.99687C8.44687 8.71997 8 9.1731 8 9.72935V21.7106C8 22.2668 8.44687 22.72 8.99687 22.72H21C21.55 22.72 22 22.2668 22 21.7106V9.72935C22 9.1731 21.55 8.71997 21 8.71997ZM12.2312 20.72H10.1562V14.0387H12.2344V20.72H12.2312ZM11.1937 13.1262C10.5281 13.1262 9.99063 12.5856 9.99063 11.9231C9.99063 11.2606 10.5281 10.72 11.1937 10.72C11.8562 10.72 12.3969 11.2606 12.3969 11.9231C12.3969 12.5887 11.8594 13.1262 11.1937 13.1262ZM20.0094 20.72H17.9344V17.47C17.9344 16.695 17.9187 15.6981 16.8562 15.6981C15.775 15.6981 15.6094 16.5418 15.6094 17.4137V20.72H13.5344V14.0387H15.525V14.9512H15.5531C15.8312 14.4262 16.5094 13.8731 17.5188 13.8731C19.6187 13.8731 20.0094 15.2575 20.0094 17.0575V20.72Z" fill="white"/>
</svg>
