<svg width="30" height="24" viewBox="0 0 30 24" fill="none" xmlns="http://www.w3.org/2000/svg">
<path d="M1.07143 4.40816H28.9286C29.5203 4.40816 30 3.96961 30 3.42857V0.979592C30 0.438551 29.5203 0 28.9286 0H1.07143C0.479665 0 0 0.438551 0 0.979592V3.42857C0 3.96961 0.479665 4.40816 1.07143 4.40816ZM1.07143 14.2041H28.9286C29.5203 14.2041 30 13.7655 30 13.2245V10.7755C30 10.2345 29.5203 9.79592 28.9286 9.79592H1.07143C0.479665 9.79592 0 10.2345 0 10.7755V13.2245C0 13.7655 0.479665 14.2041 1.07143 14.2041ZM1.07143 24H28.9286C29.5203 24 30 23.5614 30 23.0204V20.5714C30 20.0304 29.5203 19.5918 28.9286 19.5918H1.07143C0.479665 19.5918 0 20.0304 0 20.5714V23.0204C0 23.5614 0.479665 24 1.07143 24Z" fill="#F2860A"/>
</svg>
