<svg width="25" height="29" viewBox="0 0 25 29" fill="none" xmlns="http://www.w3.org/2000/svg">
<path id="Vector" d="M24.6582 24.5803L19.79 19.0446C19.5703 18.7947 19.2725 18.6559 18.96 18.6559H18.1641C19.5117 16.6959 20.3125 14.2307 20.3125 11.5489C20.3125 5.16924 15.7666 0 10.1562 0C4.5459 0 0 5.16924 0 11.5489C0 17.9286 4.5459 23.0978 10.1562 23.0978C12.5146 23.0978 14.6826 22.1872 16.4062 20.6548V21.5598C16.4062 21.9151 16.5283 22.2538 16.748 22.5037L21.6162 28.0394C22.0752 28.5613 22.8174 28.5613 23.2715 28.0394L24.6533 26.4681C25.1123 25.9462 25.1123 25.1022 24.6582 24.5803ZM10.1562 18.6559C6.7041 18.6559 3.90625 15.48 3.90625 11.5489C3.90625 7.62338 6.69922 4.44188 10.1562 4.44188C13.6084 4.44188 16.4062 7.61783 16.4062 11.5489C16.4062 15.4744 13.6133 18.6559 10.1562 18.6559Z" fill="black" fill-opacity="0.71"/>
</svg>
