<svg width="16" height="17" viewBox="0 0 16 17" fill="none" xmlns="http://www.w3.org/2000/svg">
<path d="M7.99999 7.73814H14.4731C14.5354 8.08614 14.58 8.42557 14.58 8.881C14.58 12.7919 11.9548 15.5776 7.99942 15.5776C4.20456 15.5776 1.14227 12.5153 1.14227 8.72042C1.14227 4.92557 4.20456 1.86328 7.99942 1.86328C9.84742 1.86328 11.4011 2.54214 12.5977 3.65814L10.7314 5.453C10.2223 4.96214 9.3297 4.39071 7.99942 4.39071C5.65999 4.39071 3.74913 6.32842 3.74913 8.721C3.74913 11.1136 5.65999 13.0513 7.99942 13.0513C10.7137 13.0513 11.7314 11.105 11.8926 10.0959H7.99942V7.73871L7.99999 7.73814Z" fill="white"/>
</svg>
