<svg width="16" height="17" viewBox="0 0 16 17" fill="none" xmlns="http://www.w3.org/2000/svg">
<path d="M14.3553 5.46122C14.3655 5.60334 14.3655 5.7455 14.3655 5.88762C14.3655 10.2226 11.066 15.2176 5.03553 15.2176C3.17766 15.2176 1.45178 14.6795 0 13.7455C0.263969 13.7759 0.51775 13.7861 0.791875 13.7861C2.32484 13.7861 3.73603 13.2683 4.86294 12.3851C3.42131 12.3546 2.21319 11.4105 1.79694 10.111C2 10.1414 2.20303 10.1617 2.41625 10.1617C2.71066 10.1617 3.00509 10.1211 3.27919 10.0501C1.77666 9.74547 0.649719 8.42569 0.649719 6.83178V6.79119C1.08625 7.03484 1.59391 7.18712 2.13194 7.20741C1.24869 6.61856 0.670031 5.6135 0.670031 4.47644C0.670031 3.86731 0.832438 3.30894 1.11672 2.82162C2.73094 4.81147 5.15734 6.11094 7.87813 6.25309C7.82738 6.00944 7.79691 5.75566 7.79691 5.50184C7.79691 3.69472 9.25884 2.22266 11.0761 2.22266C12.0203 2.22266 12.873 2.61859 13.472 3.25819C14.2131 3.11606 14.9238 2.84194 15.5533 2.46631C15.3096 3.22775 14.7918 3.86734 14.1116 4.27341C14.7715 4.20238 15.4111 4.01959 15.9999 3.76581C15.5533 4.41553 14.9949 4.99419 14.3553 5.46122Z" fill="white"/>
</svg>
