<svg width="16" height="17" viewBox="0 0 16 17" fill="none" xmlns="http://www.w3.org/2000/svg">
<path d="M14 1.72021H1.99687C1.44687 1.72021 1 2.17334 1 2.72959V14.7108C1 15.2671 1.44687 15.7202 1.99687 15.7202H14C14.55 15.7202 15 15.2671 15 14.7108V2.72959C15 2.17334 14.55 1.72021 14 1.72021ZM5.23125 13.7202H3.15625V7.03896H5.23438V13.7202H5.23125ZM4.19375 6.12646C3.52812 6.12646 2.99063 5.58584 2.99063 4.92334C2.99063 4.26084 3.52812 3.72021 4.19375 3.72021C4.85625 3.72021 5.39687 4.26084 5.39687 4.92334C5.39687 5.58896 4.85938 6.12646 4.19375 6.12646ZM13.0094 13.7202H10.9344V10.4702C10.9344 9.69521 10.9187 8.69834 9.85625 8.69834C8.775 8.69834 8.60938 9.54209 8.60938 10.414V13.7202H6.53438V7.03896H8.525V7.95146H8.55312C8.83125 7.42646 9.50938 6.87334 10.5188 6.87334C12.6187 6.87334 13.0094 8.25771 13.0094 10.0577V13.7202Z" fill="white"/>
</svg>
