<svg width="16" height="17" viewBox="0 0 16 17" fill="none" xmlns="http://www.w3.org/2000/svg">
<path d="M13.5 1.72021H2.5C2.10218 1.72021 1.72064 1.87825 1.43934 2.15955C1.15804 2.44086 1 2.82239 1 3.22021L1 14.2202C1 14.618 1.15804 14.9996 1.43934 15.2809C1.72064 15.5622 2.10218 15.7202 2.5 15.7202H6.78906V10.9605H4.82031V8.72021H6.78906V7.01271C6.78906 5.07053 7.94531 3.99771 9.71625 3.99771C10.5644 3.99771 11.4513 4.14896 11.4513 4.14896V6.05521H10.4741C9.51125 6.05521 9.21094 6.65271 9.21094 7.26553V8.72021H11.3603L11.0166 10.9605H9.21094V15.7202H13.5C13.8978 15.7202 14.2794 15.5622 14.5607 15.2809C14.842 14.9996 15 14.618 15 14.2202V3.22021C15 2.82239 14.842 2.44086 14.5607 2.15955C14.2794 1.87825 13.8978 1.72021 13.5 1.72021Z" fill="white"/>
</svg>
