<svg width="30" height="31" viewBox="0 0 30 31" fill="none" xmlns="http://www.w3.org/2000/svg">
<rect width="30" height="30" transform="translate(0 0.719971)" fill="#5A5A5A"/>
<path d="M21.3553 12.461C21.3655 12.6031 21.3655 12.7453 21.3655 12.8874C21.3655 17.2224 18.066 22.2173 12.0355 22.2173C10.1777 22.2173 8.45178 21.6792 7 20.7453C7.26397 20.7757 7.51775 20.7858 7.79188 20.7858C9.32484 20.7858 10.736 20.2681 11.8629 19.3848C10.4213 19.3544 9.21319 18.4102 8.79694 17.1107C9 17.1412 9.20303 17.1615 9.41625 17.1615C9.71066 17.1615 10.0051 17.1208 10.2792 17.0498C8.77666 16.7452 7.64972 15.4254 7.64972 13.8315V13.7909C8.08625 14.0346 8.59391 14.1869 9.13194 14.2072C8.24869 13.6183 7.67003 12.6133 7.67003 11.4762C7.67003 10.8671 7.83244 10.3087 8.11672 9.82138C9.73094 11.8112 12.1573 13.1107 14.8781 13.2528C14.8274 13.0092 14.7969 12.7554 14.7969 12.5016C14.7969 10.6945 16.2588 9.22241 18.0761 9.22241C19.0203 9.22241 19.873 9.61835 20.472 10.2579C21.2131 10.1158 21.9238 9.84169 22.5533 9.46607C22.3096 10.2275 21.7918 10.8671 21.1116 11.2732C21.7715 11.2021 22.4111 11.0193 22.9999 10.7656C22.5533 11.4153 21.9949 11.9939 21.3553 12.461Z" fill="white"/>
</svg>
