<svg width="18" height="15" viewBox="0 0 18 15" fill="none" xmlns="http://www.w3.org/2000/svg">
<path d="M1.07832 5.80269C1.49554 6.24895 2.15818 6.2927 2.60813 5.89019C6.42854 2.53012 11.9751 2.53012 15.8037 5.88144C16.2618 6.28395 16.9326 6.24895 17.3499 5.80269C17.8325 5.28643 17.7998 4.42891 17.268 3.96515C12.5968 -0.121196 5.83953 -0.121196 1.16013 3.96515C0.628382 4.42016 0.587478 5.27768 1.07832 5.80269ZM7.42659 12.5928L8.62916 13.8791C8.94821 14.2204 9.4636 14.2204 9.78265 13.8791L10.9852 12.5928C11.3697 12.1816 11.2879 11.4728 10.7971 11.2016C10.3022 10.9298 9.75398 10.788 9.19773 10.788C8.64147 10.788 8.09322 10.9298 7.59839 11.2016C7.13209 11.4728 7.0421 12.1816 7.42659 12.5928ZM4.37517 9.32902C4.77603 9.75778 5.40595 9.80154 5.87225 9.44278C6.84825 8.70417 8.01441 8.30753 9.21 8.30753C10.4056 8.30753 11.5717 8.70417 12.5477 9.44278C13.0141 9.79279 13.644 9.75778 14.0448 9.32902L14.053 9.32027C14.5439 8.79526 14.5111 7.90274 13.9467 7.47398C11.1325 5.29518 7.2957 5.29518 4.47334 7.47398C3.90887 7.91149 3.87614 8.79526 4.37517 9.32902Z" fill="white"/>
</svg>
