<svg width="43" height="39" viewBox="0 0 43 39" fill="none" xmlns="http://www.w3.org/2000/svg">
<g id="Link">
<rect x="0.180176" width="42.59" height="38.2567" rx="19.1283" fill="#F2860A"/>
<path id="Vector" d="M31.5314 13.4078C31.2899 12.3813 30.5783 11.5729 29.6748 11.2986C28.0371 10.8 21.4702 10.8 21.4702 10.8C21.4702 10.8 14.9034 10.8 13.2657 11.2986C12.3621 11.573 11.6505 12.3813 11.409 13.4078C10.9702 15.2684 10.9702 19.1502 10.9702 19.1502C10.9702 19.1502 10.9702 23.0321 11.409 24.8926C11.6505 25.9191 12.3621 26.6938 13.2657 26.9682C14.9034 27.4667 21.4702 27.4667 21.4702 27.4667C21.4702 27.4667 28.0371 27.4667 29.6748 26.9682C30.5783 26.6938 31.2899 25.9191 31.5314 24.8926C31.9702 23.0321 31.9702 19.1502 31.9702 19.1502C31.9702 19.1502 31.9702 15.2684 31.5314 13.4078ZM19.3225 22.6747V15.6258L24.8111 19.1503L19.3225 22.6747Z" fill="white"/>
</g>
</svg>
